<?xml version="1.0" standalone="no"?>
<!DOCTYPE svg PUBLIC "-//W3C//DTD SVG 20010904//EN"
 "http://www.w3.org/TR/2001/REC-SVG-20010904/DTD/svg10.dtd">
<svg version="1.0" xmlns="http://www.w3.org/2000/svg"
 width="163.000000pt" height="41.000000pt" viewBox="0 0 163.000000 41.000000"
 preserveAspectRatio="xMidYMid meet">

<g transform="translate(0.000000,41.000000) scale(0.100000,-0.100000)"
fill="#000000" stroke="none">
<path d="M260 391 c0 -6 5 -13 10 -16 6 -3 10 -11 10 -17 0 -6 -3 -9 -6 -5 -4
3 -13 0 -20 -8 -16 -16 -19 -105 -3 -105 5 0 8 4 4 9 -3 5 -1 12 4 15 5 4 9
-14 9 -39 0 -25 -4 -45 -9 -45 -4 0 -6 7 -3 15 8 19 -5 19 -30 0 -18 -13 -15
-20 7 -16 8 1 12 -36 9 -84 -1 -16 0 -45 3 -63 5 -28 10 -32 36 -32 16 0 47
12 69 26 40 26 40 27 40 90 l0 64 -30 0 c-29 0 -30 -2 -30 -46 0 -44 -17 -73
-42 -74 -5 0 -8 61 -8 136 0 119 2 139 18 150 29 22 32 17 32 -51 l0 -65 30 0
30 0 0 85 0 85 -65 0 c-36 0 -65 -4 -65 -9z"/>
<path d="M517 290 c-24 -57 -24 -60 -7 -60 11 0 26 13 35 30 9 17 18 30 21 30
3 0 10 -13 15 -30 8 -22 17 -30 34 -30 l24 0 -26 60 c-21 47 -31 60 -48 60
-17 0 -27 -13 -48 -60z"/>
<path d="M730 290 c0 -53 2 -60 20 -60 14 0 20 7 21 23 l0 22 16 -22 c14 -21
60 -34 51 -15 -35 78 -60 112 -83 112 -24 0 -25 -3 -25 -60z"/>
<path d="M961 295 c-17 -30 -31 -57 -31 -60 0 -15 40 -2 53 18 l16 22 0 -22
c1 -16 7 -23 21 -23 18 0 20 7 20 60 0 57 -1 60 -24 60 -19 0 -31 -12 -55 -55z"/>
<path d="M1131 333 c-33 -16 -71 -65 -71 -90 0 -23 36 -14 48 11 35 76 159 76
194 0 12 -25 48 -34 48 -11 0 6 -9 26 -19 43 -36 59 -130 81 -200 47z"/>
<path d="M1380 290 c0 -53 2 -60 20 -60 14 0 20 7 20 22 l0 22 16 -22 c9 -13
26 -22 40 -22 25 0 25 0 -17 60 -26 37 -49 60 -60 60 -16 0 -19 -8 -19 -60z"/>
<path d="M1580 290 c0 -53 2 -60 20 -60 18 0 20 7 20 60 0 53 -2 60 -20 60
-18 0 -20 -7 -20 -60z"/>
<path d="M1598 206 c-10 -7 -18 -25 -18 -40 0 -31 -6 -33 -29 -5 -10 13 -25
20 -38 17 -20 -3 -19 -6 20 -60 29 -40 49 -57 65 -58 21 0 22 4 22 80 0 44 -1
80 -2 80 -2 0 -11 -7 -20 -14z"/>
<path d="M445 130 c-30 -59 -31 -70 -7 -70 11 0 26 16 40 45 l22 45 65 0 66 0
20 -45 c14 -31 26 -45 39 -45 26 0 25 11 -5 70 l-25 50 -95 0 -95 0 -25 -50z"/>
<path d="M730 120 c0 -53 2 -60 20 -60 18 0 20 7 20 60 0 53 -2 60 -20 60 -18
0 -20 -7 -20 -60z"/>
<path d="M830 174 c0 -16 45 -84 55 -84 9 0 26 26 53 83 6 11 -33 8 -45 -4 -8
-8 -13 -8 -17 0 -7 12 -46 16 -46 5z"/>
<path d="M1000 120 c0 -53 2 -60 20 -60 18 0 20 7 20 60 0 53 -2 60 -20 60
-18 0 -20 -7 -20 -60z"/>
<path d="M1060 168 c0 -25 39 -77 69 -93 42 -21 119 -19 158 5 30 18 63 65 63
90 0 22 -36 8 -55 -22 -11 -18 -36 -38 -56 -46 -31 -12 -41 -11 -73 2 -20 8
-44 29 -54 46 -17 30 -52 42 -52 18z"/>
<path d="M1380 120 c0 -53 2 -60 20 -60 18 0 20 7 20 60 0 53 -2 60 -20 60
-18 0 -20 -7 -20 -60z"/>
</g>
</svg>
